<mxfile host="app.diagrams.net" modified="2024-06-26T12:22:07.349Z" agent="Mozilla/5.0 (X11; Linux x86_64) AppleWebKit/537.36 (KHTML, like Gecko) Chrome/126.0.0.0 Safari/537.36" version="24.6.3" etag="O323YFDpj56mmwCIJbiA" type="device">
  <diagram name="Flowchart" id="0">
    <mxGraphModel dx="1069" dy="771" grid="1" gridSize="10" guides="1" tooltips="1" connect="1" arrows="1" fold="1" page="1" pageScale="1" pageWidth="827" pageHeight="1169" math="0" shadow="0">
      <root>
        <mxCell id="0" />
        <mxCell id="1" parent="0" />
        <mxCell id="start" value="Start" style="ellipse;whiteSpace=wrap;html=1;" parent="1" vertex="1">
          <mxGeometry x="320" y="40" width="80" height="40" as="geometry" />
        </mxCell>
        <mxCell id="9gzhHaiNSSfuTJPKXpUf-1" style="edgeStyle=elbowEdgeStyle;rounded=0;orthogonalLoop=1;jettySize=auto;html=1;elbow=vertical;" edge="1" parent="1" source="import" target="toradex">
          <mxGeometry relative="1" as="geometry" />
        </mxCell>
        <mxCell id="9gzhHaiNSSfuTJPKXpUf-2" style="edgeStyle=elbowEdgeStyle;rounded=0;orthogonalLoop=1;jettySize=auto;html=1;entryX=0.5;entryY=0;entryDx=0;entryDy=0;elbow=vertical;" edge="1" parent="1" source="import" target="elinux">
          <mxGeometry relative="1" as="geometry" />
        </mxCell>
        <mxCell id="9gzhHaiNSSfuTJPKXpUf-3" style="edgeStyle=elbowEdgeStyle;rounded=0;orthogonalLoop=1;jettySize=auto;html=1;entryX=0.5;entryY=0;entryDx=0;entryDy=0;elbow=vertical;" edge="1" parent="1" source="import" target="docs">
          <mxGeometry relative="1" as="geometry" />
        </mxCell>
        <mxCell id="9gzhHaiNSSfuTJPKXpUf-4" style="edgeStyle=elbowEdgeStyle;rounded=0;orthogonalLoop=1;jettySize=auto;html=1;entryX=0.5;entryY=0;entryDx=0;entryDy=0;elbow=vertical;" edge="1" parent="1" source="import" target="yocto">
          <mxGeometry relative="1" as="geometry" />
        </mxCell>
        <mxCell id="import" value="Import Libraries and Setup" style="rounded=1;whiteSpace=wrap;html=1;" parent="1" vertex="1">
          <mxGeometry x="240" y="100" width="240" height="60" as="geometry" />
        </mxCell>
        <mxCell id="9gzhHaiNSSfuTJPKXpUf-6" style="edgeStyle=elbowEdgeStyle;rounded=0;orthogonalLoop=1;jettySize=auto;html=1;entryX=0.5;entryY=0;entryDx=0;entryDy=0;elbow=vertical;" edge="1" parent="1" source="toradex" target="end">
          <mxGeometry relative="1" as="geometry" />
        </mxCell>
        <mxCell id="toradex" value="ToradexSpider Scraping" style="rounded=1;whiteSpace=wrap;html=1;" parent="1" vertex="1">
          <mxGeometry x="110" y="190" width="110" height="60" as="geometry" />
        </mxCell>
        <mxCell id="9gzhHaiNSSfuTJPKXpUf-7" style="edgeStyle=elbowEdgeStyle;rounded=0;orthogonalLoop=1;jettySize=auto;html=1;entryX=0.5;entryY=0;entryDx=0;entryDy=0;elbow=vertical;" edge="1" parent="1" source="elinux" target="end">
          <mxGeometry relative="1" as="geometry" />
        </mxCell>
        <mxCell id="elinux" value="ELinuxSpider Scraping" style="rounded=1;whiteSpace=wrap;html=1;" parent="1" vertex="1">
          <mxGeometry x="240" y="190" width="110" height="60" as="geometry" />
        </mxCell>
        <mxCell id="9gzhHaiNSSfuTJPKXpUf-8" style="edgeStyle=elbowEdgeStyle;rounded=0;orthogonalLoop=1;jettySize=auto;html=1;elbow=vertical;" edge="1" parent="1" source="docs" target="end">
          <mxGeometry relative="1" as="geometry" />
        </mxCell>
        <mxCell id="docs" value="DocsSpider Scraping" style="rounded=1;whiteSpace=wrap;html=1;" parent="1" vertex="1">
          <mxGeometry x="370" y="190" width="110" height="60" as="geometry" />
        </mxCell>
        <mxCell id="9gzhHaiNSSfuTJPKXpUf-9" style="edgeStyle=elbowEdgeStyle;rounded=0;orthogonalLoop=1;jettySize=auto;html=1;elbow=vertical;" edge="1" parent="1" source="yocto" target="end">
          <mxGeometry relative="1" as="geometry" />
        </mxCell>
        <mxCell id="yocto" value="YoctoSpider Scraping" style="rounded=1;whiteSpace=wrap;html=1;" parent="1" vertex="1">
          <mxGeometry x="500" y="190" width="110" height="60" as="geometry" />
        </mxCell>
        <mxCell id="end" value="End" style="ellipse;whiteSpace=wrap;html=1;" parent="1" vertex="1">
          <mxGeometry x="320" y="280" width="80" height="40" as="geometry" />
        </mxCell>
        <mxCell id="flow1" style="edgeStyle=orthogonalEdgeStyle;rounded=0;orthogonalLoop=1;jettySize=auto;html=1;exitX=0.5;exitY=1;exitDx=0;exitDy=0;entryX=0.5;entryY=0;entryDx=0;entryDy=0;" parent="1" source="start" target="import" edge="1">
          <mxGeometry relative="1" as="geometry" />
        </mxCell>
      </root>
    </mxGraphModel>
  </diagram>
</mxfile>
